<?xml version="1.0" encoding="UTF-8"?>
<svg id="Calque_1" data-name="Calque 1" xmlns="http://www.w3.org/2000/svg" viewBox="0 0 1599.71 1631.4">
  <path d="M726.52,145.18c483.58-40.84,857.15,397.38,710.64,867.48-171.74,551.02-926.12,620.62-1208.06,122.72C-2.44,726.49,250.68,185.37,726.52,145.18ZM316.26,1100.59c6.7-.52,7.78-7.11,9.97-11.96,92.19-204.02,364.37-92.56,526.78-67.62,353.13,54.24,602.44-331.1,362.81-617.09-72.09-86.04-174.74-142.09-284.25-165.64-20.61-4.43-85.07-16.87-99.74-8.36-21.72,12.61-43.98,66.01-46.12,90.76-11.14,129.13,165.13,180.21,180.31,303.69,32.48,264.17-306.92,220.66-470.02,252.62-112.81,22.1-239.53,88.28-179.75,223.6ZM717.18,235.12c-152.08,14.83-395.64,167.1-410.72,330.07-20.81,224.86,314.61,218.05,375.38,57.53,38.08-100.58-34.32-183.34-22.82-281.99,5.1-43.73,28.38-75.78,58.16-105.61ZM1201.3,1232.68c-106.83,38.21-219.76,17.89-322.66-22.13-89.33-34.75-171.77-95.34-271.52-100.08-138.18-6.57-183.12,96.7-73.2,185.63,179.92,145.56,511.11,100.99,667.38-63.42Z" style="fill: #f7f7f7;"/>
</svg>