<svg width="1696" height="568" viewBox="0 0 1696 568" fill="none" xmlns="http://www.w3.org/2000/svg">
<path d="M1695.17 286.57C1695.17 235.47 1682.58 188.83 1657.41 146.62C1632.23 103.67 1598.17 69.61 1555.22 44.43C1512.27 19.25 1465.62 6.67 1415.27 6.67C1364.92 6.67 1318.27 19.26 1275.32 44.43C1242.23 63.83 1214.44 88.52 1191.9 118.47L1215.81 5.55H1055.86L1043.64 64.42V56.64C1043.64 39.61 1036.24 25.91 1021.43 15.55C1006.62 5.18 984.04 0 953.68 0C912.06 0 874.37 10.17 840.59 30.49C808.59 10.91 773.09 1.11 734.07 1.11C703.71 1.11 674.83 7.41001 647.43 19.99L645.21 21.1C611.15 37.39 583.38 62.2 561.91 95.52C548.81 116.12 539.85 138.19 535.02 161.75C532.03 155.89 528.82 150.11 525.37 144.4C500.19 100.71 465.76 66.28 422.07 41.1C379.12 15.18 332.1 2.22 281.01 2.22C229.92 2.22 183.63 15.18 139.95 41.1C97 66.28 62.94 100.71 37.76 144.4C12.58 187.35 0 234.37 0 285.46C0 336.55 12.59 382.83 37.76 426.52C62.94 469.47 97 503.53 139.95 528.71C183.64 553.89 230.66 566.48 281.01 566.48C331.36 566.48 379.12 553.89 422.07 528.71C465.76 503.53 500.19 469.47 525.37 426.52C527.25 423.35 529.06 420.16 530.8 416.95V560.91H606.33V204.37C606.33 169.57 618.92 139.58 644.09 114.4C669.27 89.22 699.26 76.64 734.06 76.64C748.6 76.64 763.13 79.35 777.66 84.74C744.7 121.99 718.95 165.94 700.42 216.59C678.95 276.57 668.21 333.96 668.21 388.75C668.21 450.21 682.28 495.38 710.42 524.26C738.56 553.14 773.73 567.58 815.94 567.58C881.1 567.58 936.27 533.15 981.44 464.28C985.88 496.86 997.36 522.41 1015.87 540.92C1035.12 558.69 1059.93 567.57 1090.29 567.57C1118.43 567.57 1139.9 559.42 1154.71 543.14C1168.6 527.16 1183.15 500.43 1198.35 462.94C1219.67 489.19 1245.32 511.12 1275.31 528.7C1318.26 553.88 1364.91 566.47 1415.26 566.47C1465.61 566.47 1510.78 554.25 1552.99 529.81C1595.2 505.38 1628.89 472.79 1654.07 432.06L1588.54 394.3C1570.03 423.92 1545.59 447.24 1515.23 464.28C1484.87 481.31 1451.55 489.83 1415.27 489.83C1366.4 489.83 1323.08 474.28 1285.32 443.18C1247.56 411.34 1224.23 371.72 1215.34 324.33H1692.95C1694.43 308.04 1695.17 295.45 1695.17 286.57ZM110.72 172.2C118.6 159.2 127.66 147.22 137.62 136.49C149.57 124.67 162.92 114.33 177.72 105.53C201.14 91.91 225.97 83.32 252.2 79.72C255.92 80.08 258.86 80.97 260.8 82.44C263.95 84.82 264.89 90.18 263.6 98.35C258.68 129.51 219.02 149.17 187.16 164.96C178.27 169.37 169.87 173.53 162.49 177.76C127.82 197.62 101.22 221.12 82.98 247.93C86.59 222.45 96.04 196.46 110.73 172.21L110.72 172.2ZM333.93 477.41C303.52 483.39 275.92 480.85 251.89 469.84C230.37 459.98 212.42 443.37 199.97 421.79C185.5 396.71 179.14 366.04 182.07 335.43C185.2 302.62 198.51 271.95 220.56 246.73C231.79 233.89 245.54 223.15 260.1 211.79C281.14 195.36 302.9 178.37 317.08 154.13C329.58 132.75 336.15 109.2 336.48 85.07C353.21 89.69 369.15 96.5 384.29 105.51C416.13 124.02 441.31 149.2 459.82 181.04C478.33 212.88 487.59 247.68 487.59 285.45C487.59 323.22 478.33 356.91 459.82 388.75C457.22 393.22 454.48 397.54 451.62 401.75C422.32 441.16 380.67 468.21 333.92 477.41H333.93ZM980.33 362.09C973.66 392.45 961.08 416.52 942.56 434.29C924.79 451.32 906.65 459.84 888.14 459.84C872.59 459.84 859.26 454.66 848.15 444.29C837.78 433.92 832.6 410.23 832.6 373.2C832.6 336.17 839.27 293.6 852.6 245.47C865.93 196.6 884.44 155.13 908.14 121.07C931.84 86.27 958.49 68.87 988.11 68.87C1003.66 68.87 1015.14 73.68 1022.54 83.31C1029.94 92.2 1033.65 101.45 1033.65 111.08L980.34 362.1L980.33 362.09ZM1176.93 459.84C1160.64 459.84 1148.79 456.88 1141.39 450.95C1134.72 444.29 1131.39 433.55 1131.39 418.74C1131.39 406.15 1132.87 394.3 1135.83 383.2L1142.67 350.88C1148.87 377.25 1159.02 402.47 1173.12 426.52C1179.61 437.59 1186.69 448.05 1194.36 457.94C1189.49 459.2 1183.69 459.85 1176.92 459.85L1176.93 459.84ZM1215.33 252.13C1215.33 221.77 1224.96 193.63 1244.21 167.71C1263.46 141.05 1288.64 120.32 1319.74 105.51C1350.84 89.96 1382.68 82.19 1415.26 82.19C1447.84 82.19 1480.42 89.96 1510.78 105.51C1541.88 120.32 1567.06 141.05 1586.31 167.71C1605.56 193.63 1615.19 221.77 1615.19 252.13H1215.33Z" fill="#F0F0F0"/>
</svg>
