<?xml version="1.0" encoding="UTF-8"?>
<svg id="Calque_1" data-name="Calque 1" xmlns="http://www.w3.org/2000/svg" viewBox="0 0 964.73 951.75">
  <path d="M700.41,763.46c-137.69,119.87-336.88,106.55-464.03-16.71-77.36-74.99-114.97-182.36-100.58-289.82,25.3-188.96,189.95-333.37,381.23-317.72,120.76,9.88,224.63,83.04,275.35,192.66,68.51,148.07,31.22,324.34-91.96,431.59ZM607.85,788.62c75.39-47.92,122.7-128.75,127.74-217.18,2.41-42.28-14.94-79.86-44.01-108.26-26.87-26.25-41.53-55.92-45.51-93.48-8.47-80.04-44.41-167.45-121.54-196.24-92.51-34.53-190.25,27.29-241.51,109.65-102.57,164.82-80.93,419.86,100.03,515.43,72.06,38.06,154.11,35.01,224.8-9.92Z" style="fill: #0c0c0c; stroke: #0c0c0c; stroke-miterlimit: 10; stroke-width: 44px;"/>
</svg>