<?xml version="1.0" encoding="UTF-8"?>
<svg id="Calque_1" data-name="Calque 1" xmlns="http://www.w3.org/2000/svg" viewBox="0 0 2148.78 942.26">
  <path d="M1921.98,458.15c0-51.1-12.59-97.74-37.76-139.95-25.18-42.95-59.24-77.01-102.19-102.19-42.95-25.18-89.6-37.76-139.95-37.76s-97,12.59-139.95,37.76c-33.09,19.4-60.88,44.09-83.42,74.04l23.91-112.92h-159.95l-12.22,58.87v-7.78c0-17.03-7.4-30.73-22.21-41.09-14.81-10.37-37.39-15.55-67.75-15.55-41.62,0-79.31,10.17-113.09,30.49-32-19.58-67.5-29.38-106.52-29.38-30.36,0-59.24,6.3-86.64,18.88l-2.22,1.11c-34.06,16.29-61.83,41.1-83.3,74.42-13.1,20.6-22.06,42.67-26.89,66.23-2.99-5.86-6.2-11.64-9.65-17.35-25.18-43.69-59.61-78.12-103.3-103.3-42.95-25.92-89.97-38.88-141.06-38.88s-97.38,12.96-141.06,38.88c-42.95,25.18-77.01,59.61-102.19,103.3-25.18,42.95-37.76,89.97-37.76,141.06s12.59,97.37,37.76,141.06c25.18,42.95,59.24,77.01,102.19,102.19,43.69,25.18,90.71,37.77,141.06,37.77s98.11-12.59,141.06-37.77c43.69-25.18,78.12-59.24,103.3-102.19,1.88-3.17,3.69-6.36,5.43-9.57v143.96h75.53v-356.54c0-34.8,12.59-64.79,37.76-89.97,25.18-25.18,55.17-37.76,89.97-37.76,14.54,0,29.07,2.71,43.6,8.1-32.96,37.25-58.71,81.2-77.24,131.85-21.47,59.98-32.21,117.37-32.21,172.16,0,61.46,14.07,106.63,42.21,135.51,28.14,28.88,63.31,43.32,105.52,43.32,65.16,0,120.33-34.43,165.5-103.3,4.44,32.58,15.92,58.13,34.43,76.64,19.25,17.77,44.06,26.65,74.42,26.65,28.14,0,49.61-8.15,64.42-24.43,13.89-15.98,28.44-42.71,43.64-80.2,21.32,26.25,46.97,48.18,76.96,65.76,42.95,25.18,89.6,37.77,139.95,37.77s95.52-12.22,137.73-36.66c42.21-24.43,75.9-57.02,101.08-97.75l-65.53-37.76c-18.51,29.62-42.95,52.94-73.31,69.98-30.36,17.03-63.68,25.55-99.96,25.55-48.87,0-92.19-15.55-129.95-46.65-37.76-31.84-61.09-71.46-69.98-118.85h477.61c1.48-16.29,2.22-28.88,2.22-37.76ZM337.53,343.78c7.88-13,16.94-24.98,26.9-35.71,11.95-11.82,25.3-22.16,40.1-30.96,23.42-13.62,48.25-22.21,74.48-25.81,3.72.36,6.66,1.25,8.6,2.72,3.15,2.38,4.09,7.74,2.8,15.91-4.92,31.16-44.58,50.82-76.44,66.61-8.89,4.41-17.29,8.57-24.67,12.8-34.67,19.86-61.27,43.36-79.51,70.17,3.61-25.48,13.06-51.47,27.75-75.72ZM560.74,648.99c-30.41,5.98-58.01,3.44-82.04-7.57-21.52-9.86-39.47-26.47-51.92-48.05-14.47-25.08-20.83-55.75-17.9-86.36,3.13-32.81,16.44-63.48,38.49-88.7,11.23-12.84,24.98-23.58,39.54-34.94,21.04-16.43,42.8-33.42,56.98-57.66,12.5-21.38,19.07-44.93,19.4-69.06,16.73,4.62,32.67,11.43,47.81,20.44,31.84,18.51,57.02,43.69,75.53,75.53,18.51,31.84,27.77,66.64,27.77,104.41s-9.26,71.46-27.77,103.3c-2.6,4.47-5.34,8.79-8.2,13-29.3,39.41-70.95,66.46-117.7,75.66ZM1207.14,533.67c-6.67,30.36-19.25,54.43-37.77,72.2-17.77,17.03-35.91,25.55-54.42,25.55-15.55,0-28.88-5.18-39.99-15.55-10.37-10.37-15.55-34.06-15.55-71.09s6.67-79.6,20-127.73c13.33-48.87,31.84-90.34,55.54-124.4,23.7-34.8,50.35-52.2,79.97-52.2,15.55,0,27.03,4.81,34.43,14.44,7.4,8.89,11.11,18.14,11.11,27.77l-53.31,251.02ZM1403.74,631.42c-16.29,0-28.14-2.96-35.54-8.89-6.67-6.66-10-17.4-10-32.21,0-12.59,1.48-24.44,4.44-35.54l6.84-32.32c6.2,26.37,16.35,51.59,30.45,75.64,6.49,11.07,13.57,21.53,21.24,31.42-4.87,1.26-10.67,1.91-17.44,1.91ZM1442.14,423.71c0-30.36,9.63-58.5,28.88-84.42,19.25-26.66,44.43-47.39,75.53-62.2,31.1-15.55,62.94-23.32,95.52-23.32s65.16,7.77,95.52,23.32c31.1,14.81,56.28,35.54,75.53,62.2,19.25,25.92,28.88,54.06,28.88,84.42h-399.86Z" style="fill: #141414;"/>
</svg>