<?xml version="1.0" encoding="UTF-8"?>
<svg id="Calque_1" data-name="Calque 1" xmlns="http://www.w3.org/2000/svg" viewBox="0 0 971.67 995.08">
  <path d="M836.5,281.6c-36.3-62.98-85.93-112.62-148.92-148.91-61.91-37.36-129.7-56.04-203.35-56.04s-140.37,18.68-203.35,56.04c-61.91,36.29-111.02,85.93-147.31,148.91-36.29,61.91-54.44,129.7-54.44,203.35s18.15,140.37,54.44,203.35c36.29,61.91,85.4,111.02,147.31,147.31,62.98,36.3,130.77,54.44,203.35,54.44s141.44-18.15,203.35-54.44c62.98-36.29,112.62-85.4,148.92-147.31,37.36-62.98,56.04-130.77,56.04-203.35s-18.68-141.44-56.04-203.35ZM238.75,321.68c11.35-18.74,24.41-36.02,38.77-51.49,17.22-17.04,36.47-31.94,57.8-44.64,33.74-19.62,69.51-32.01,107.29-37.21,5.39.51,9.67,1.8,12.48,3.93,4.54,3.44,5.9,11.15,4.04,22.93-7.09,44.92-64.26,73.26-110.2,96.03-12.82,6.36-24.93,12.36-35.57,18.45-49.98,28.64-88.32,62.5-114.62,101.15,5.2-36.73,18.82-74.2,40.01-109.16ZM560.54,761.67c-43.84,8.63-83.63,4.96-118.27-10.91-31.02-14.21-56.9-38.16-74.85-69.26-20.86-36.15-30.02-80.36-25.81-124.5,4.52-47.29,23.71-91.51,55.49-127.86,16.19-18.51,36.01-33.99,57-50.37,30.34-23.68,61.7-48.17,82.14-83.12,18.03-30.82,27.5-64.78,27.98-99.57,24.11,6.67,47.09,16.49,68.92,29.48,45.9,26.69,82.2,62.98,108.88,108.88,26.68,45.9,40.03,96.07,40.03,150.51s-13.34,103.01-40.03,148.91c-3.75,6.44-7.7,12.67-11.82,18.74-42.23,56.81-102.27,95.81-169.67,109.07Z" style="fill: #f9f9f9;"/>
</svg>