<?xml version="1.0" encoding="UTF-8"?>
<svg id="Calque_1" data-name="Calque 1" xmlns="http://www.w3.org/2000/svg" viewBox="0 0 1586.48 1850.89">
  <g>
    <path d="M785.67,960.29c-1.72,0-3.43-.44-4.97-1.33l-86.01-49.68-86.01-49.63c-.26-.15-.5-.31-.75-.47l-85.26-49.21-85.43-49.33c-.2-.1-.39-.2-.58-.31l-85.96-49.63c-3.09-1.79-5-5.09-5-8.66v-99.31c0-3.57,1.91-6.87,5-8.66,1.55-.89,3.27-1.34,5-1.34s3.45.45,5,1.34l86.01,49.63,85.97,49.64,86.01,49.68,86.01,49.63,81.01,46.79,80.34-46.38c.36-.25.74-.47,1.13-.67l85.5-49.37,86.01-49.64,86.01-49.68,85.97-49.63c1.55-.89,3.27-1.34,5-1.34s3.45.45,5,1.34c3.09,1.79,5,5.09,5,8.66v99.31c0,3.57-1.91,6.87-5,8.66l-85.96,49.63-171.28,98.84c-.24.17-.48.32-.74.47l-85.96,49.63c-.19.11-.39.22-.59.32l-84.89,49.01c-.17.12-.35.22-.53.33-1.56.9-3.29,1.35-5.03,1.35Z" style="fill: #fff;"/>
    <polygon points="1215.66 602.72 1215.66 702.03 1129.7 751.67 1043.69 801.3 957.68 850.94 957.68 850.98 871.72 900.62 871.67 900.62 785.71 950.25 785.71 950.3 699.7 900.62 613.69 850.98 613.69 850.94 527.68 801.3 441.71 751.67 441.67 751.67 355.7 702.03 355.7 602.72 441.71 652.36 527.68 701.99 613.69 751.67 699.7 801.3 785.71 850.98 871.67 801.35 871.67 801.3 871.72 801.3 957.68 751.67 1043.69 702.03 1129.7 652.36 1215.66 602.72" style="fill: #fff;"/>
    <path d="M785.67,968.29c-3.15,0-6.25-.83-8.97-2.4l-86.01-49.68-86-49.63c-.33-.19-.67-.4-1-.62l-85.01-49.06-85.24-49.21c-.26-.13-.52-.28-.78-.42l-85.96-49.63c-5.55-3.2-9-9.18-9-15.59v-99.31c0-6.41,3.45-12.38,9-15.59,2.73-1.58,5.85-2.41,9-2.41s6.27.83,9,2.41l86.01,49.63,85.97,49.64,86.01,49.68,86,49.63,77.01,44.48,76.11-43.94c.49-.32.99-.62,1.51-.89l85.36-49.28,86.01-49.64,86-49.68,85.97-49.64c2.73-1.58,5.84-2.41,9-2.41s6.27.83,9,2.41c5.55,3.21,9,9.18,9,15.59v99.31c0,6.41-3.45,12.38-9,15.59l-85.96,49.63-171.03,98.7c-.34.22-.68.44-1.02.63l-85.94,49.62c-.25.15-.52.29-.8.44l-84.5,48.79c-.23.15-.47.29-.71.43-2.75,1.59-5.87,2.42-9.03,2.43h0ZM708.7,885.03l76.97,44.46,77-44.46c.25-.14.51-.29.79-.43l84.22-48.63c.33-.22.66-.43,1-.63l172.02-99.27,76.96-44.44v-57.74l-58.96,34.04-86.01,49.68-86.02,49.64-85.35,49.28c-.22.14-.44.27-.66.4l-85.95,49.63c-2.73,1.58-5.84,2.41-9,2.41-3.16,0-6.27-.83-9-2.42l-86.01-49.68-86-49.63-86.02-49.68-85.96-49.63-59.01-34.05v57.75l76.23,44.01c.27.14.54.29.81.44l85.94,49.62,86.01,49.63c.33.19.67.4,1.01.62l85,49.05Z" style="fill: #1c1c1b;"/>
    <path d="M785.68,958.29c-1.37,0-2.74-.35-3.97-1.06l-86.01-49.68-86.01-49.63c-.23-.13-.45-.28-.66-.43l-85.35-49.25-85.49-49.36c-.18-.08-.35-.18-.52-.27l-85.96-49.63c-2.48-1.43-4-4.07-4-6.93v-99.31c0-2.86,1.52-5.5,4-6.93,2.48-1.43,5.52-1.43,8,0l86.01,49.63,85.96,49.64,86.01,49.68,86.01,49.63,82.01,47.37,81.41-47c.32-.22.66-.42,1.01-.6l85.56-49.4,86.01-49.63,86.01-49.68,85.97-49.63c2.47-1.43,5.53-1.43,8,0,2.48,1.43,4,4.07,4,6.93v99.31c0,2.86-1.52,5.5-4,6.93l-85.96,49.63-171.37,98.89c-.21.15-.43.29-.65.42l-85.96,49.63c-.17.1-.35.19-.53.28l-85.01,49.08c-.15.1-.31.2-.47.29-1.25.72-2.64,1.08-4.03,1.08ZM618.35,844.44l85.35,49.25,81.97,47.35,82-47.35c.17-.1.35-.19.53-.28l84.82-48.98c.21-.15.43-.29.66-.42l172.02-99.27,81.96-47.32v-80.84l-73.96,42.71-86.01,49.68-86.01,49.63-85.58,49.41c-.14.09-.28.18-.43.27l-85.96,49.63c-2.48,1.43-5.53,1.43-8,0l-86.01-49.68-86.01-49.63-86.01-49.68-85.96-49.63-74.01-42.71v80.84l81.49,47.05c.18.08.35.18.52.27l85.96,49.63,86.01,49.63c.23.13.45.28.66.43Z" style="fill: #1c1c1b;"/>
  </g>
  <g>
    <path d="M957.68,662.35c-1.73,0-3.45-.45-5-1.34l-86.01-49.63c-.26-.15-.5-.31-.74-.47l-85.22-49.16c-.26-.15-.51-.31-.75-.48l-85.26-49.21c-3.09-1.79-5-5.09-5-8.66v-99.31c0-3.57,1.91-6.88,5-8.66,1.55-.89,3.27-1.34,5-1.34s3.46.45,5,1.34l85.43,49.37c.19.1.38.2.57.3l85.96,49.63,172.02,99.27c3.1,1.79,5,5.09,5,8.66s-1.91,6.92-5,8.71l-86.01,49.63c-1.55.89-3.27,1.34-5,1.34Z" style="fill: #fff;"/>
    <polygon points="1043.69 602.68 1043.69 602.72 957.68 652.36 871.67 602.72 871.67 602.68 785.71 553.09 785.71 553.04 699.7 503.41 699.7 404.09 785.66 453.77 785.71 453.77 871.67 503.41 1043.69 602.68" style="fill: #fff;"/>
    <path d="M957.68,670.36c-3.15,0-6.26-.83-9-2.41l-86.01-49.64c-.34-.2-.68-.41-1-.62l-84.96-49.01c-.34-.19-.67-.4-1-.62l-85.01-49.06c-5.55-3.21-9-9.18-9-15.59v-99.31c0-6.41,3.45-12.39,9-15.59,2.73-1.58,5.84-2.41,9-2.41s6.27.83,9,2.41l85.22,49.25c.27.14.54.29.81.44l85.94,49.62,172.02,99.27c5.55,3.21,9,9.18,9,15.59s-3.45,12.43-9,15.63l-86.01,49.63c-2.73,1.58-5.84,2.41-9,2.41ZM957.68,631.57l50.04-28.88-145.04-83.7-85.23-49.21c-.26-.13-.51-.27-.76-.42l-58.98-34.08v57.73l77.01,44.44c.34.2.68.41,1,.62l84.96,49.01c.34.2.68.41,1.01.63l76,43.86Z" style="fill: #1c1c1b;"/>
    <path d="M957.68,660.36c-1.38,0-2.76-.36-4-1.07l-86.01-49.63c-.23-.13-.45-.27-.66-.43l-85.3-49.21c-.23-.13-.45-.28-.67-.43l-85.34-49.25c-2.48-1.43-4-4.07-4-6.93v-99.31c0-2.86,1.53-5.5,4-6.93,2.48-1.43,5.53-1.43,8,0l85.49,49.41c.18.08.35.17.52.27l85.96,49.63,172.02,99.27c2.48,1.43,4,4.07,4,6.93v.04c0,2.86-1.53,5.5-4,6.93l-86.01,49.63c-1.24.71-2.62,1.07-4,1.07ZM876.33,596.17l81.35,46.94,70.04-40.42-160.05-92.36-85.49-49.36c-.18-.08-.35-.18-.52-.27l-73.96-42.74v80.83l82.01,47.33c.23.13.45.27.66.43l85.3,49.21c.23.13.45.28.67.43Z" style="fill: #1c1c1b;"/>
  </g>
  <g>
    <path d="M785.71,761.62c-1.73,0-3.45-.45-5-1.34l-172.02-99.27-85.65-49.5c-3.18-1.68-5.36-5.01-5.36-8.84v-99.27c0-3.57,1.91-6.87,5-8.66,1.55-.89,3.27-1.34,5-1.34s3.45.45,5,1.34l86.01,49.63,86.01,49.68,85.43,49.33c.19.1.39.2.57.31l85.96,49.63c3.09,1.79,5,5.09,5,8.66s-1.91,6.87-5,8.66l-85.96,49.63c-1.55.89-3.27,1.34-5,1.34Z" style="fill: #fff;"/>
    <polygon points="871.67 701.99 785.71 751.62 613.69 652.36 527.72 602.68 527.68 602.68 527.68 503.41 613.69 553.04 699.7 602.72 785.66 652.36 785.71 652.36 871.67 701.99" style="fill: #fff;"/>
    <path d="M785.71,769.63c-3.16,0-6.27-.83-9-2.41l-172.02-99.27-85.55-49.44c-5.84-3.16-9.46-9.2-9.46-15.83v-99.27c0-6.41,3.45-12.38,9-15.59,2.73-1.58,5.85-2.41,9-2.41s6.27.83,9,2.41l86.01,49.63,86.02,49.68,85.23,49.21c.26.13.52.28.78.42l85.96,49.63c5.55,3.2,9,9.18,9,15.59s-3.45,12.38-9,15.59l-85.96,49.63c-2.73,1.58-5.84,2.41-9,2.41ZM622.7,636.77l163.01,94.07,49.97-28.85-58.23-33.62c-.27-.14-.53-.28-.79-.43l-85.96-49.63-86.01-49.68-59.01-34.05v57.69l77.02,44.51Z" style="fill: #1c1c1b;"/>
    <path d="M785.71,759.63c-1.38,0-2.76-.36-4-1.07l-172.02-99.27-85.7-49.52c-2.56-1.34-4.32-4.01-4.32-7.08v-99.27c0-2.86,1.52-5.5,4-6.93,2.48-1.43,5.52-1.43,8,0l86.01,49.63,86.01,49.68,85.49,49.36c.18.08.35.18.52.27l85.96,49.63c2.48,1.43,4,4.07,4,6.93s-1.52,5.5-4,6.93l-85.96,49.63c-1.24.71-2.62,1.07-4,1.07ZM535.68,598.03l82.01,47.4,168.01,96.96,69.97-40.4-73.49-42.43c-.18-.08-.35-.18-.52-.27l-85.96-49.63-86.01-49.68-74.01-42.71v80.77Z" style="fill: #1c1c1b;"/>
  </g>
  <g>
    <path d="M441.71,1258.15c-1.73,0-3.45-.45-5-1.34-3.09-1.79-5-5.09-5-8.66v-397.17c0-3.57,1.91-6.87,5-8.66,1.55-.89,3.27-1.34,5-1.34s3.45.45,5,1.34l85.96,49.63c3.09,1.79,5,5.09,5,8.66v297.9c0,3.57-1.91,6.87-5,8.66l-85.96,49.63c-1.55.89-3.27,1.34-5,1.34Z" style="fill: #fff;"/>
    <polygon points="527.68 900.62 527.68 1198.52 441.71 1248.15 441.71 850.98 527.68 900.62" style="fill: #fff;"/>
    <path d="M441.71,1266.15c-3.15,0-6.27-.83-9-2.41-5.55-3.21-9-9.18-9-15.59v-397.17c0-6.41,3.45-12.38,9-15.59,2.74-1.58,5.85-2.41,9-2.41s6.27.83,9,2.41l85.96,49.63c5.55,3.2,9,9.18,9,15.59v297.9c0,6.41-3.45,12.38-9,15.59l-85.96,49.63c-2.73,1.58-5.84,2.41-9,2.41ZM459.71,1216.97l49.96-28.85v-277.11l-49.96-28.85v334.81Z" style="fill: #1c1c1b;"/>
    <path d="M441.71,1256.15c-1.38,0-2.76-.36-4-1.07-2.48-1.43-4-4.07-4-6.93v-397.17c0-2.86,1.52-5.5,4-6.93,2.48-1.43,5.53-1.43,8,0l85.96,49.63c2.48,1.43,4,4.07,4,6.93v297.9c0,2.86-1.52,5.5-4,6.93l-85.96,49.63c-1.24.71-2.62,1.07-4,1.07ZM449.71,864.84v369.45l69.96-40.4v-288.66l-69.96-40.4Z" style="fill: #1c1c1b;"/>
  </g>
  <g>
    <path d="M613.69,1357.46c-1.73,0-3.45-.45-5-1.34-3.09-1.79-5-5.09-5-8.66v-397.17c0-3.57,1.91-6.87,5-8.66,1.55-.89,3.27-1.34,5-1.34s3.45.45,5,1.34l86.01,49.63c3.09,1.79,5,5.09,5,8.66v297.9c0,3.57-1.91,6.88-5,8.66l-86.01,49.63c-1.55.89-3.27,1.34-5,1.34Z" style="fill: #fff;"/>
    <polygon points="699.7 999.93 699.7 1297.83 613.69 1347.46 613.69 950.3 699.7 999.93" style="fill: #fff;"/>
    <path d="M613.69,1365.46c-3.16,0-6.27-.83-9-2.41-5.55-3.21-9-9.18-9-15.59v-397.17c0-6.41,3.45-12.38,9-15.59,2.74-1.58,5.85-2.41,9-2.41s6.27.83,9,2.41l86,49.63c5.55,3.21,9,9.18,9,15.59v297.9c0,6.41-3.45,12.38-9,15.59l-86.01,49.63c-2.73,1.58-5.84,2.41-9,2.41ZM631.69,1316.29l50.01-28.86v-277.11l-50.01-28.86v334.83Z" style="fill: #1c1c1b;"/>
    <path d="M613.69,1355.46c-1.38,0-2.76-.36-4-1.07-2.47-1.43-4-4.07-4-6.93v-397.17c0-2.86,1.52-5.5,4-6.93,2.48-1.43,5.52-1.43,8,0l86.01,49.63c2.48,1.43,4,4.07,4,6.93v297.9c0,2.86-1.53,5.5-4,6.93l-86.01,49.63c-1.24.71-2.62,1.07-4,1.07ZM621.69,964.15v369.46l70.01-40.4v-288.66l-70.01-40.4Z" style="fill: #1c1c1b;"/>
  </g>
  <g>
    <path d="M785.71,1456.78c-1.73,0-3.45-.45-5-1.34-3.09-1.79-5-5.09-5-8.66v-496.53c0-3.57,1.91-6.87,5-8.66l85.96-49.63c.19-.11.39-.22.59-.32l84.68-48.89c.24-.17.48-.33.74-.47l172.02-99.27,85.96-49.63c1.55-.89,3.27-1.34,5-1.34s3.45.45,5,1.34c3.09,1.79,5,5.09,5,8.66v99.31c0,3.57-1.91,6.87-5,8.66l-85.96,49.63-86.01,49.64-85.53,49.38c-.16.1-.32.2-.49.3l-81.01,46.75v274.8l71.01-41.01,85.97-49.63c.19-.11.39-.22.59-.32l80.46-46.46v-76.2l-70.27,40.55c-.24.17-.48.32-.74.47l-86.01,49.63c-1.55.89-3.27,1.34-5,1.34s-3.45-.45-5-1.34c-3.09-1.79-5-5.09-5-8.66v-99.31c0-3.57,1.91-6.87,5-8.66l86.01-49.68,86.01-49.64,85.96-49.63c1.55-.89,3.27-1.34,5-1.34s3.45.45,5,1.34c3.09,1.79,5,5.09,5,8.66v297.9c0,3.57-1.91,6.87-5,8.66l-85.34,49.27c-.36.25-.74.47-1.13.67l-85.5,49.37-86.01,49.64-86,49.68-85.97,49.64c-1.55.89-3.27,1.34-5,1.34Z" style="fill: #fff;"/>
    <polygon points="871.67 999.93 871.67 1297.83 957.68 1248.15 1043.65 1198.52 1043.69 1198.52 1129.66 1148.88 1129.7 1148.88 1129.7 1049.57 1043.69 1099.2 1043.69 1099.25 957.68 1148.88 957.68 1049.57 1043.69 999.89 1129.7 950.25 1215.66 900.62 1215.66 1198.52 1129.7 1248.15 1129.7 1248.19 1129.66 1248.19 1043.69 1297.83 957.68 1347.46 871.67 1397.14 785.71 1446.78 785.71 950.25 871.67 900.62 871.72 900.62 957.68 850.98 957.68 850.94 1043.69 801.3 1129.7 751.67 1215.66 702.03 1215.66 801.35 1129.7 850.98 1043.69 900.62 957.73 950.25 957.68 950.25 957.68 950.3 871.67 999.93" style="fill: #fff;"/>
    <path d="M785.71,1464.78c-3.15,0-6.26-.83-9-2.41-5.55-3.21-9-9.18-9-15.59v-496.53c0-6.41,3.45-12.38,9-15.59l85.96-49.63c.25-.15.52-.29.8-.43l84.21-48.62c.33-.22.66-.43,1-.62l172.02-99.27,85.96-49.63c2.73-1.58,5.84-2.41,9-2.41s6.27.83,9,2.41c5.55,3.21,9,9.18,9,15.59v99.31c0,6.41-3.45,12.38-9,15.59l-85.96,49.63-86.01,49.64-85.35,49.28c-.22.14-.44.28-.67.41l-77,44.43v256.32l59.01-34.08,85.97-49.64c.26-.15.53-.29.8-.43l76.26-44.03v-57.73l-58.01,33.48c-.32.22-.66.42-1,.62l-86.01,49.64c-2.73,1.58-5.84,2.41-9,2.41-3.16,0-6.27-.83-9-2.41-5.55-3.21-9-9.18-9-15.59v-99.31c0-6.41,3.45-12.38,9-15.59l86.01-49.68,86.02-49.64,85.96-49.63c2.73-1.58,5.84-2.41,9-2.41s6.27.83,9,2.41c5.55,3.21,9,9.18,9,15.59v297.9c0,6.41-3.45,12.38-9,15.59l-85.12,49.15c-.49.32-.99.62-1.5.89l-85.35,49.28-86.01,49.64-86,49.68-85.97,49.64c-2.73,1.58-5.84,2.41-9,2.41ZM803.71,1415.6l58.96-34.04,86.01-49.68,86.02-49.64,85.37-49.29c.22-.14.44-.27.67-.41l76.93-44.42v-256.33l-58.96,34.04-86.01,49.64-77.01,44.48v57.75l58.01-33.48c.33-.22.66-.43,1-.62l86.01-49.64c2.74-1.58,5.85-2.41,9-2.41s6.27.83,9,2.41c5.55,3.21,9,9.18,9,15.59v99.31c0,6.74-3.84,12.98-9.82,16.04l-85.19,49.19c-.26.15-.53.3-.8.43l-85.21,49.2-86.01,49.68c-2.73,1.58-5.85,2.41-9,2.41s-6.27-.83-9-2.41c-5.55-3.21-9-9.18-9-15.59v-297.9c0-6.41,3.45-12.39,9-15.59l85.15-49.14c.49-.32.99-.62,1.51-.89l85.35-49.28,86.01-49.64,76.96-44.44v-57.74l-58.96,34.04-171.03,98.7c-.34.22-.68.44-1.02.63l-85.94,49.62c-.25.15-.52.29-.8.43l-76.21,44v454.96Z" style="fill: #1c1c1b;"/>
    <path d="M785.71,1454.78c-1.38,0-2.76-.36-4-1.07-2.48-1.43-4-4.07-4-6.93v-496.53c0-2.86,1.52-5.5,4-6.93l85.96-49.63c.17-.1.35-.19.53-.28l84.82-48.98c.21-.15.43-.29.66-.42l172.02-99.27,85.96-49.63c2.47-1.43,5.53-1.43,8,0,2.48,1.43,4,4.07,4,6.93v99.31c0,2.86-1.52,5.5-4,6.93l-85.96,49.63-86.01,49.64-85.58,49.41c-.14.09-.29.18-.43.27l-82.01,47.33v279.42l74.01-42.75,85.97-49.63c.17-.1.35-.19.53-.28l81.52-47.07v-80.82l-73.36,42.33c-.21.15-.43.29-.66.42l-86.01,49.63c-2.47,1.43-5.52,1.43-8,0-2.47-1.43-4-4.07-4-6.93v-99.31c0-2.86,1.52-5.5,4-6.93l86.01-49.68,86.01-49.64,85.96-49.63c2.47-1.43,5.53-1.43,8,0,2.48,1.43,4,4.07,4,6.93v297.9c0,2.86-1.52,5.5-4,6.93l-85.42,49.32c-.32.22-.65.42-1,.6l-85.56,49.4-86.01,49.64-86.01,49.68-85.97,49.63c-1.24.71-2.62,1.07-4,1.07ZM793.71,954.87v478.05l73.96-42.71,86.01-49.68,86.01-49.64,85.59-49.42c.14-.09.28-.18.42-.26l81.96-47.33v-279.42l-73.96,42.71-86.01,49.64-82.01,47.37v80.84l73.35-42.33c.21-.15.43-.29.66-.42l86.01-49.63c2.48-1.43,5.53-1.43,8,0s4,4.07,4,6.93v99.31c0,3.18-1.86,5.93-4.55,7.22l-85.46,49.34c-.17.1-.35.19-.53.28l-85.48,49.35-86.01,49.68c-2.47,1.43-5.52,1.43-8,0s-4-4.07-4-6.93v-297.9c0-2.86,1.53-5.5,4-6.93l85.46-49.31c.32-.22.65-.42,1-.6l85.56-49.4,86.01-49.64,81.96-47.33v-80.84l-73.96,42.71-171.37,98.89c-.21.15-.43.29-.65.42l-85.96,49.63c-.17.1-.35.19-.53.28l-81.48,47.04Z" style="fill: #1c1c1b;"/>
  </g>
  <g>
    <path d="M871.67,1307.83c-1.73,0-3.45-.45-5-1.34-3.09-1.79-5-5.09-5-8.66v-297.9c0-3.57,1.91-6.88,5-8.66l85.38-49.27c.36-.25.74-.47,1.13-.67l85.5-49.37,86.01-49.64c1.55-.89,3.27-1.34,5-1.34s3.45.45,5,1.34l85.96,49.63c3.09,1.79,5,5.09,5,8.66s-1.91,6.87-5,8.66l-85.96,49.63-86.01,49.64-81.01,46.79v76.23l71.01-40.98c1.55-.89,3.27-1.34,5-1.34s3.45.45,5,1.34l85.96,49.63c3.09,1.79,5,5.09,5,8.66s-1.91,6.87-5,8.66l-85.96,49.63c-.19.11-.39.22-.59.32l-85.42,49.32-86.01,49.68c-1.55.89-3.27,1.34-5,1.34Z" style="fill: #fff;"/>
    <polygon points="957.68 1049.57 957.68 1148.88 1043.69 1099.25 1129.66 1148.88 1043.69 1198.52 1043.65 1198.52 957.68 1248.15 871.67 1297.83 871.67 999.93 957.68 950.3 957.68 950.25 957.73 950.25 1043.69 900.62 1129.7 850.98 1215.66 900.62 1129.7 950.25 1043.69 999.89 957.68 1049.57" style="fill: #fff;"/>
    <path d="M871.67,1315.83c-3.15,0-6.26-.83-9-2.41-5.55-3.21-9-9.18-9-15.59v-297.9c0-6.41,3.45-12.38,9-15.59l85.15-49.14c.49-.32,1-.62,1.52-.89l85.35-49.28,86.01-49.64c2.73-1.58,5.84-2.41,9-2.41s6.27.83,9,2.41l85.96,49.63c5.55,3.2,9,9.18,9,15.59s-3.45,12.38-9,15.59l-85.96,49.63-86.01,49.64-77.01,44.48v57.75l59.01-34.05c2.73-1.58,5.84-2.41,9-2.41s6.27.83,9,2.41l85.96,49.63c5.55,3.2,9,9.18,9,15.59s-3.45,12.38-9,15.59l-85.96,49.63c-.25.15-.52.29-.8.44l-85.21,49.2-86.01,49.68c-2.73,1.58-5.85,2.41-9,2.41ZM889.67,1266.65l59.01-34.08,85.97-49.64c.25-.15.52-.29.8-.43l58.22-33.61-49.97-28.85-77.01,44.44c-2.73,1.58-5.84,2.41-9,2.41-3.16,0-6.27-.83-9-2.41-5.55-3.21-9-9.18-9-15.59v-99.31c0-6.41,3.45-12.38,9-15.59l86.01-49.68,86.02-49.64,58.96-34.04-49.97-28.85-77.01,44.44-85.36,49.29c-.22.14-.44.27-.66.4l-77,44.43v256.32Z" style="fill: #1c1c1b;"/>
    <path d="M871.67,1305.83c-1.38,0-2.76-.36-4-1.07-2.48-1.43-4-4.07-4-6.93v-297.9c0-2.86,1.53-5.5,4-6.93l85.45-49.31c.32-.22.65-.42,1-.6l85.56-49.4,86.01-49.64c2.47-1.43,5.52-1.43,8,0l85.96,49.63c2.48,1.43,4,4.07,4,6.93s-1.52,5.5-4,6.93l-85.96,49.63-86.01,49.64-82.01,47.37v80.84l74.01-42.71c2.47-1.43,5.52-1.43,8,0l85.96,49.63c2.48,1.43,4,4.07,4,6.93s-1.52,5.5-4,6.93l-85.96,49.63c-.17.1-.35.19-.53.28l-85.48,49.35-86.01,49.68c-1.24.71-2.62,1.07-4,1.07ZM879.67,1004.55v279.42l74.01-42.75,85.97-49.63c.17-.1.35-.19.53-.28l73.48-42.43-69.97-40.4-82.01,47.33c-2.47,1.43-5.52,1.43-8,0-2.47-1.43-4-4.07-4-6.93v-99.31c0-2.86,1.52-5.5,4-6.93l86.01-49.68,86.01-49.64,73.96-42.71-69.97-40.4-82.01,47.33-85.58,49.41c-.14.09-.29.18-.43.27l-82.01,47.33Z" style="fill: #1c1c1b;"/>
  </g>
  <g>
    <path d="M785.71,860.98c-1.73,0-3.45-.45-5-1.34l-86.01-49.68-86.01-49.63-86.01-49.68-85.96-49.63-86.01-49.63c-3.1-1.79-5-5.09-5-8.66s1.91-6.92,5-8.71l86.01-49.63c1.55-.89,3.27-1.34,5-1.34s3.45.45,5,1.34l85.43,49.33c.2.1.39.2.58.31l85.96,49.68,167.01,96.38,65.97-38.09-70.44-40.67c-.19-.1-.39-.2-.57-.31l-85.96-49.63-86.01-49.68-86.01-49.63c-3.1-1.79-5-5.09-5-8.66s1.91-6.88,5-8.66l86.01-49.63c1.55-.89,3.27-1.34,5-1.34s3.45.45,5,1.34l172.02,99.27c.26.15.5.31.74.47l85.22,49.16c.26.15.51.31.75.48l80.27,46.32,66.04-38.11-157.05-90.63-85.44-49.33c-.2-.1-.39-.2-.58-.31l-85.96-49.68c-3.09-1.79-5-5.09-5-8.66s1.91-6.87,5-8.66l86.01-49.63c1.55-.89,3.27-1.34,5-1.34s3.45.45,5,1.34l85.96,49.63,86.01,49.63c.26.15.5.31.75.47l85.27,49.21,85.65,49.45c.32.17.62.35.92.55l85.4,49.27c3.1,1.79,5,5.09,5,8.66s-1.91,6.92-5,8.71l-85.96,49.63-86.01,49.68-86.01,49.64-85.52,49.38c-.16.1-.32.2-.48.3l-85.96,49.63c-1.55.89-3.27,1.34-5,1.34Z" style="fill: #fff;"/>
    <polygon points="1215.66 602.68 1215.66 602.72 1129.7 652.36 1043.69 702.03 957.68 751.67 871.72 801.3 871.67 801.3 871.67 801.35 785.71 850.98 699.7 801.3 613.69 751.67 527.68 701.99 441.71 652.36 355.7 602.72 355.7 602.68 441.71 553.04 527.68 602.68 527.72 602.68 613.69 652.36 785.71 751.62 871.67 701.99 785.71 652.36 785.66 652.36 699.7 602.72 613.69 553.04 527.68 503.41 613.69 453.77 699.7 503.41 785.71 553.04 785.71 553.09 871.67 602.68 871.67 602.72 957.68 652.36 1043.69 602.72 1043.69 602.68 871.67 503.41 785.71 453.77 785.66 453.77 699.7 404.09 785.71 354.46 871.67 404.09 957.68 453.73 957.68 453.77 1043.69 503.41 1129.66 553.04 1129.7 553.04 1129.7 553.09 1215.66 602.68" style="fill: #fff;"/>
    <path d="M785.71,868.98c-3.16,0-6.27-.83-9-2.41l-86.01-49.68-86-49.63-86.02-49.68-85.96-49.63-86.01-49.63c-5.55-3.21-9-9.18-9-15.59s3.45-12.43,9-15.63l86.01-49.63c2.73-1.58,5.84-2.41,9-2.41s6.27.83,9,2.41l85.23,49.21c.26.13.51.27.76.41l85.99,49.69,163.01,94.07,49.97-28.85-58.24-33.62c-.26-.14-.52-.28-.78-.42l-85.96-49.63-86.01-49.68-86-49.63c-5.55-3.21-9-9.18-9-15.59s3.45-12.38,9-15.59l86.01-49.63c2.73-1.58,5.84-2.41,9-2.41s6.26.83,9,2.41l172.02,99.27c.33.19.67.4,1,.62l84.96,49.01c.34.2.68.41,1.01.63l76,43.86,50.04-28.88-145.04-83.7-85.23-49.21c-.26-.13-.52-.27-.77-.42l-85.98-49.69c-5.55-3.21-9-9.18-8.99-15.59,0-6.41,3.45-12.38,9-15.58l86.01-49.63c2.73-1.58,5.84-2.41,9-2.41s6.27.83,9,2.41l85.96,49.63,86.01,49.63c.33.19.67.4,1,.62l85,49.05,85.55,49.4c.41.22.82.47,1.22.72l85.2,49.15c5.55,3.2,9.01,9.18,9.01,15.59s-3.45,12.43-9,15.63l-85.96,49.63-86.01,49.68-86.02,49.64-85.36,49.29c-.23.15-.46.29-.7.42l-85.91,49.6c-2.73,1.58-5.84,2.41-9,2.41ZM450.71,636.77l85.97,49.64,86.01,49.68,86,49.63,77.01,44.48,76.11-43.94c.49-.32.99-.62,1.51-.89l85.36-49.28,86.01-49.64,86-49.68,59-34.06-58.99-34.03c-.23-.13-.45-.26-.66-.4l-85.36-49.28-86.01-49.63c-.33-.19-.67-.4-1.01-.62l-85-49.05-76.97-44.44-50.01,28.86,58.24,33.66c.27.14.54.29.8.44l85.94,49.62,172.02,99.27c5.55,3.21,9,9.18,9,15.59s-3.45,12.43-9,15.63l-86.01,49.63c-2.73,1.58-5.84,2.41-9,2.41s-6.26-.83-9-2.41l-86.01-49.64c-.34-.2-.67-.4-1-.62l-84.96-49.01c-.33-.19-.67-.4-1-.62l-162.02-93.5-50,28.85,59,34.04,86.02,49.68,85.23,49.21c.26.14.53.28.78.43l85.96,49.63c5.55,3.2,9,9.18,9,15.59s-3.45,12.38-9,15.59l-85.96,49.63c-2.73,1.58-5.84,2.41-9,2.41s-6.26-.83-9-2.41l-172.02-99.27-85.24-49.26c-.27-.14-.54-.29-.8-.44l-76.94-44.42-50.03,28.87,59.03,34.07Z" style="fill: #1c1c1b;"/>
    <path d="M785.71,858.98c-1.38,0-2.76-.36-4-1.07l-86.01-49.68-86.01-49.63-86.01-49.68-85.96-49.63-86.01-49.63c-2.48-1.43-4-4.07-4-6.93s1.53-5.54,4-6.97l86.01-49.63c2.47-1.43,5.52-1.43,8,0l85.49,49.36c.18.08.35.18.52.27l85.97,49.68,168.01,96.96,69.97-40.4-73.49-42.43c-.18-.08-.35-.18-.52-.27l-85.96-49.63-86.01-49.68-86.01-49.63c-2.48-1.43-4-4.07-4-6.93s1.53-5.5,4-6.93l86.01-49.63c2.47-1.43,5.52-1.43,8,0l172.02,99.27c.23.13.45.28.66.43l85.3,49.21c.23.13.45.28.67.43l81.35,46.94,70.04-40.42-160.05-92.36-85.49-49.36c-.18-.08-.35-.18-.52-.27l-85.96-49.68c-2.47-1.43-4-4.07-4-6.93,0-2.86,1.53-5.5,4-6.93l86.01-49.63c2.47-1.43,5.52-1.43,8,0l85.96,49.63,86.01,49.63c.23.13.45.28.66.43l85.34,49.25,85.69,49.48c.28.15.55.31.82.49l85.46,49.3c2.48,1.43,4,4.07,4,6.93v.04c0,2.86-1.52,5.5-4,6.93l-85.96,49.63-86.01,49.68-86.01,49.63-85.58,49.41c-.14.09-.28.18-.43.27l-85.96,49.63c-1.24.71-2.62,1.07-4,1.07ZM371.67,602.7l74.04,42.73,85.96,49.64,86.01,49.68,86.01,49.63,82.01,47.37,81.41-47c.32-.22.66-.42,1.01-.6l85.56-49.4,86.01-49.63,86.01-49.68,74-42.73-74-42.69c-.15-.09-.3-.18-.44-.27l-85.57-49.41-86.01-49.63c-.23-.13-.45-.28-.66-.43l-85.35-49.25-81.97-47.33-70.01,40.4,73.5,42.47c.18.08.35.17.52.27l85.96,49.63,172.02,99.27c2.48,1.43,4,4.07,4,6.93s-1.53,5.54-4,6.97l-86.01,49.63c-2.47,1.43-5.52,1.43-8,0l-86.01-49.63c-.23-.13-.45-.27-.66-.43l-85.3-49.21c-.23-.13-.45-.28-.67-.43l-167.36-96.58-70,40.4,74,42.71,86.01,49.68,85.49,49.36c.18.08.35.18.52.27l85.96,49.63c2.48,1.43,4,4.07,4,6.93s-1.52,5.5-4,6.93l-85.96,49.63c-2.47,1.43-5.52,1.43-8,0l-172.02-99.27-85.5-49.41c-.18-.08-.35-.17-.52-.27l-81.96-47.33-70.04,40.42ZM1129.7,553.09h0,0Z" style="fill: #1c1c1b;"/>
  </g>
  <g>
    <path d="M785.71,1456.78c-1.73,0-3.45-.45-5-1.34l-86.01-49.63c-3.1-1.79-5-5.09-5-8.66v-391.44l-66.01-38.09v379.85c0,3.57-1.91,6.87-5,8.66-1.55.89-3.27,1.34-5,1.34s-3.45-.45-5-1.34l-86.01-49.63c-3.09-1.79-5-5.09-5-8.66v-391.44l-65.96-38.09v379.89c0,5.52-4.48,10-10,10-1.76,0-3.53-.46-5.05-1.34l-85.96-49.68c-3.09-1.79-5-5.09-5-8.66v-496.48c0-3.57,1.91-6.87,5-8.66,1.55-.89,3.27-1.34,5-1.34s3.45.45,5,1.34l85.43,49.33c.2.1.39.2.58.31l85.96,49.63,86.01,49.63c.26.15.5.31.75.47l85.26,49.21,86.01,49.68c3.09,1.79,5,5.09,5,8.66v496.48c0,3.57-1.91,6.87-5,8.66-1.55.89-3.27,1.34-5,1.34Z" style="fill: #fff;"/>
    <polygon points="785.71 950.3 785.71 1446.78 699.7 1397.14 699.7 999.93 613.69 950.3 613.69 1347.46 527.68 1297.83 527.68 900.62 441.71 850.98 441.71 1248.19 441.67 1248.19 355.7 1198.52 355.7 702.03 441.67 751.67 441.71 751.67 527.68 801.3 613.69 850.94 613.69 850.98 699.7 900.62 785.71 950.3" style="fill: #fff;"/>
    <path d="M785.71,1464.78c-3.15,0-6.26-.83-9-2.41l-86.01-49.64c-5.55-3.21-9-9.18-9-15.59v-386.82l-50.01-28.86v366c0,6.41-3.45,12.38-9,15.59-2.74,1.58-5.85,2.41-9,2.41-3.16,0-6.27-.83-9-2.41l-86.01-49.63c-5.55-3.21-9-9.18-9-15.59v-386.82l-49.96-28.85v366.03c0,9.92-8.08,18-18,18-3.19,0-6.32-.83-9.05-2.42l-85.97-49.68c-5.55-3.21-8.99-9.18-8.99-15.58v-496.48c0-6.41,3.45-12.38,9-15.59,2.74-1.58,5.85-2.41,9-2.41s6.27.83,9,2.41l85.23,49.21c.27.14.53.28.78.43l85.96,49.63,86.01,49.63c.33.19.67.4,1.01.62l85,49.05,86.01,49.68c5.55,3.21,9,9.18,9,15.59v496.48c0,6.41-3.45,12.38-9,15.59-2.73,1.58-5.85,2.41-9,2.41ZM767.71,1415.61v-454.92l-77.01-44.48-86-49.63c-.35-.2-.68-.41-1.01-.63l-85-49.05-85.24-49.21c-.26-.14-.52-.28-.78-.43l-58.96-34.04v454.92l50.01,28.9v-366.04c0-6.41,3.45-12.38,9-15.59,2.74-1.58,5.85-2.41,9-2.41s6.27.83,9,2.41l85.96,49.63c5.55,3.2,9,9.18,9,15.59v386.82l50.01,28.86v-366c0-6.41,3.45-12.38,9-15.59,2.73-1.58,5.85-2.41,9-2.41s6.27.83,9,2.41l86.01,49.63c5.55,3.21,9,9.18,9,15.59v386.82l50.01,28.86Z" style="fill: #1c1c1b;"/>
    <path d="M785.71,1454.78c-1.38,0-2.76-.36-4-1.07l-86.01-49.63c-2.48-1.43-4-4.07-4-6.93v-392.59l-70.01-40.4v383.31c0,2.86-1.52,5.5-4,6.93-2.48,1.43-5.52,1.43-8,0l-86.01-49.63c-2.48-1.43-4-4.07-4-6.93v-392.59l-69.96-40.4v383.35c0,4.42-3.58,8-8,8-1.41,0-2.83-.37-4.05-1.07l-85.96-49.68c-2.47-1.43-4-4.07-4-6.93v-496.48c0-2.86,1.52-5.5,4-6.93,2.48-1.43,5.53-1.43,8,0l85.49,49.36c.18.08.35.18.52.27l85.96,49.63,86.01,49.63c.23.13.45.28.66.43l85.35,49.25,86.01,49.68c2.47,1.43,4,4.07,4,6.93v496.48c0,2.86-1.52,5.5-4,6.93-1.24.71-2.62,1.07-4,1.07ZM707.7,1392.52l70.01,40.4v-478.01l-82.01-47.37-86.01-49.63c-.23-.13-.45-.28-.66-.43l-85.35-49.25-85.49-49.36c-.18-.08-.35-.18-.52-.27l-73.96-42.71v478.01l70.01,40.46v-383.37c0-2.86,1.52-5.5,4-6.93,2.48-1.43,5.53-1.43,8,0l85.96,49.63c2.48,1.43,4,4.07,4,6.93v392.59l70.01,40.4v-383.31c0-2.86,1.52-5.5,4-6.93,2.48-1.43,5.52-1.43,8,0l86.01,49.63c2.48,1.43,4,4.07,4,6.93v392.59Z" style="fill: #1c1c1b;"/>
  </g>
</svg>